<?xml version="1.0" encoding="UTF-8"?><svg id="Logos" xmlns="http://www.w3.org/2000/svg" width="196.88" height="72" viewBox="0 0 196.88 72"><defs><style>.cls-1{fill:#000;}.cls-1,.cls-2{stroke-width:0px;}.cls-2{fill:#ffcf25;}</style></defs><path class="cls-1" d="M87.19,1.46h2.18v4.68h4.99V1.46h2.19v11.45h-2.19v-4.81h-4.99v4.81h-2.18V1.46Z"/><path class="cls-1" d="M97.94,10.69c0-1.72,1.21-2.29,2.68-2.63l2.49-.57v-.2c0-.83-.54-1.36-1.41-1.36s-1.37.47-1.54,1.26l-1.86-.21c.28-1.57,1.6-2.58,3.48-2.58,2.08,0,3.43,1.31,3.43,3.22v3.35c0,.21.07.28.21.28h.46v1.67h-1.28c-.8,0-1.16-.26-1.16-.92,0-.2.03-.43.11-.72l-.18-.07c-.59,1.28-1.46,1.83-2.68,1.83-1.68,0-2.76-.93-2.76-2.36ZM101.26,11.51c1.08,0,1.85-.79,1.85-2.03v-.65l-1.78.43c-.9.21-1.28.52-1.28,1.21s.47,1.05,1.21,1.05Z"/><path class="cls-1" d="M106.66,10.66l2-.39c.21.88.92,1.33,1.85,1.33s1.46-.38,1.46-1.01-.62-.77-1.8-.98c-1.49-.23-3.42-.51-3.42-2.57,0-1.55,1.32-2.63,3.48-2.63,1.91,0,3.4.8,3.75,2.42l-2.01.33c-.18-.82-.85-1.24-1.73-1.24-.97,0-1.42.41-1.42.96,0,.64.64.77,1.82.98,1.47.23,3.4.51,3.4,2.57,0,1.62-1.31,2.7-3.52,2.7-2,0-3.48-.82-3.84-2.45Z"/><path class="cls-1" d="M117.44,12.91h-2.13V1.14h2.13v3.66c0,.43-.08.83-.2,1.44l.2.07c.51-1.21,1.28-1.91,2.7-1.91,1.82,0,2.78,1.14,2.78,3.09v5.43h-2.13v-5.37c0-.95-.47-1.47-1.42-1.47-1.08,0-1.93.82-1.93,2.26v4.58Z"/><path class="cls-1" d="M127.29,10.8c0,.33.11.42.36.42h.93v1.69h-1.93c-.97,0-1.49-.54-1.49-1.54v-5.1h-1.18v-1.68h3.3v6.22ZM124.87,2.36c0-.72.59-1.31,1.29-1.31s1.29.59,1.29,1.31-.57,1.29-1.29,1.29-1.29-.57-1.29-1.29Z"/><path class="cls-1" d="M129.28,7.19c0-3.44,2.26-5.92,5.53-5.92,2.75,0,4.63,1.59,5.14,3.75l-2.16.52c-.41-1.5-1.41-2.36-2.98-2.36-2,0-3.25,1.65-3.25,4.01s1.31,4.01,3.34,4.01c1.6,0,2.58-.87,2.99-2.47l2.04.23c-.49,2.57-2.39,4.15-5.07,4.15-3.3,0-5.58-2.49-5.58-5.92Z"/><path class="cls-1" d="M140.82,8.74c0-2.54,1.78-4.35,4.25-4.35s4.25,1.82,4.25,4.35-1.78,4.37-4.25,4.37-4.25-1.83-4.25-4.37ZM147.2,8.74c0-1.57-.83-2.62-2.13-2.62s-2.13,1.05-2.13,2.62.85,2.63,2.13,2.63,2.13-1.05,2.13-2.63Z"/><path class="cls-1" d="M150.67,4.59h1.96v.33c0,.44-.02.8-.15,1.47l.2.05c.31-1.1.88-1.85,2.22-1.85h.61v2.06h-.87c-1.19,0-1.85.72-1.85,2.04v4.22h-2.13V4.59Z"/><path class="cls-1" d="M156.51,4.59h2.09v.38c0,.38-.03.67-.15,1.34l.2.05c.51-1.33,1.46-1.96,2.68-1.96,2.03,0,3.63,1.67,3.63,4.35s-1.6,4.37-3.63,4.37c-1.23,0-2.13-.64-2.65-1.98l-.18.07c.1.65.13.96.13,1.32v3.75h-2.13V4.59ZM162.86,8.74c0-1.62-.88-2.62-2.13-2.62s-2.13,1-2.13,2.62.88,2.63,2.13,2.63,2.13-1,2.13-2.63Z"/><path class="cls-1" d="M86.14,22.93h5.57l6.5,23.26h1.48l6.46-23.26h5.29l-7.98,28.07h-9.34l-7.98-28.07Z"/><path class="cls-1" d="M111.28,45.55c0-4.21,2.97-5.61,6.58-6.46l6.1-1.4v-.48c0-2.04-1.32-3.33-3.45-3.33s-3.37,1.16-3.77,3.09l-4.57-.52c.68-3.85,3.93-6.34,8.54-6.34,5.09,0,8.42,3.21,8.42,7.9v8.22c0,.52.16.68.52.68h1.12v4.09h-3.13c-1.96,0-2.85-.64-2.85-2.25,0-.48.08-1.04.28-1.76l-.44-.16c-1.44,3.13-3.57,4.49-6.58,4.49-4.13,0-6.78-2.29-6.78-5.77ZM119.42,47.55c2.65,0,4.53-1.92,4.53-4.97v-1.6l-4.37,1.04c-2.21.52-3.13,1.28-3.13,2.97s1.16,2.57,2.97,2.57Z"/><path class="cls-1" d="M147.05,30.59h5.21v20.41h-5.09v-.8c0-1.04.08-1.8.32-3.29l-.44-.12c-1.24,2.97-3.17,4.69-6.66,4.69-4.45,0-6.78-2.81-6.78-7.58v-13.31h5.21v12.87c0,2.61,1.12,3.89,3.61,3.89,2.65,0,4.61-2.01,4.61-5.57v-11.19Z"/><path class="cls-1" d="M162.93,45.91c0,.76.28,1,.84,1h2.37v4.09h-4.81c-2.37,0-3.61-1.32-3.61-3.77v-20.97h-2.89v-4.13h8.1v23.78Z"/><path class="cls-1" d="M169.99,45.83v-11.11h-3.61v-4.13h3.61v-5.17h5.21v5.17h4.97v4.13h-4.97v10.47c0,1.24.44,1.68,1.44,1.68h3.53v4.13h-4.53c-3.97,0-5.65-1.6-5.65-5.17Z"/><path class="cls-2" d="M16.55,10.33l26.46,51.5,26.65-51.5H16.55ZM38.89,30.78h-4.22v-4.21h4.22v4.21ZM38.89,24.46h-4.22v-4.22h4.22v4.22ZM45.22,37.1h-4.22v-4.22h4.22v4.22ZM45.22,30.78h-4.22v-4.21h4.22v4.21ZM45.22,24.46h-4.22v-4.22h4.22v4.22ZM51.5,30.78h-4.22v-4.21h4.22v4.21ZM47.29,24.46v-4.22h4.22v4.22h-4.22Z"/></svg>