<?xml version="1.0" encoding="UTF-8"?><svg id="Logos" xmlns="http://www.w3.org/2000/svg" width="200" height="200" viewBox="0 0 200 200"><defs><style>.cls-1{fill:#000;stroke-width:0px;}</style></defs><path class="cls-1" d="M4.92,143.47h5.32v11.43h12.19v-11.43h5.36v27.98h-5.36v-11.75h-12.19v11.75h-5.32v-27.98Z"/><path class="cls-1" d="M31.19,166.01c0-4.2,2.96-5.6,6.56-6.44l6.08-1.4v-.48c0-2.04-1.32-3.32-3.44-3.32s-3.36,1.16-3.76,3.08l-4.56-.52c.68-3.84,3.92-6.32,8.52-6.32,5.08,0,8.4,3.2,8.4,7.88v8.2c0,.52.16.68.52.68h1.12v4.08h-3.12c-1.96,0-2.84-.64-2.84-2.24,0-.48.08-1.04.28-1.76l-.44-.16c-1.44,3.12-3.56,4.48-6.56,4.48-4.12,0-6.76-2.28-6.76-5.76ZM39.31,168.01c2.64,0,4.52-1.92,4.52-4.96v-1.6l-4.36,1.04c-2.2.52-3.12,1.28-3.12,2.96s1.16,2.56,2.96,2.56Z"/><path class="cls-1" d="M52.5,165.93l4.88-.96c.52,2.16,2.24,3.24,4.52,3.24s3.56-.92,3.56-2.48-1.52-1.88-4.4-2.4c-3.64-.56-8.35-1.24-8.35-6.28,0-3.8,3.24-6.44,8.52-6.44,4.68,0,8.32,1.96,9.15,5.92l-4.92.8c-.44-2-2.08-3.04-4.24-3.04-2.36,0-3.48,1-3.48,2.36,0,1.56,1.56,1.88,4.44,2.4,3.6.56,8.32,1.24,8.32,6.28,0,3.96-3.2,6.6-8.6,6.6-4.88,0-8.52-2-9.4-6Z"/><path class="cls-1" d="M78.85,171.45h-5.2v-28.78h5.2v8.96c0,1.04-.2,2.04-.48,3.52l.48.16c1.24-2.96,3.12-4.68,6.6-4.68,4.44,0,6.8,2.8,6.8,7.56v13.27h-5.2v-13.11c0-2.32-1.16-3.6-3.48-3.6-2.64,0-4.72,2-4.72,5.52v11.19Z"/><path class="cls-1" d="M102.92,166.29c0,.8.28,1.04.88,1.04h2.28v4.12h-4.72c-2.36,0-3.64-1.32-3.64-3.76v-12.47h-2.88v-4.12h8.08v15.19ZM97.01,145.67c0-1.76,1.44-3.2,3.16-3.2s3.16,1.44,3.16,3.2-1.4,3.16-3.16,3.16-3.16-1.4-3.16-3.16Z"/><path class="cls-1" d="M107.8,157.46c0-8.4,5.52-14.47,13.51-14.47,6.72,0,11.31,3.88,12.55,9.15l-5.28,1.28c-1-3.68-3.44-5.76-7.28-5.76-4.88,0-7.96,4.04-7.96,9.79s3.2,9.79,8.16,9.79c3.92,0,6.32-2.12,7.32-6.04l5,.56c-1.2,6.28-5.84,10.15-12.39,10.15-8.08,0-13.63-6.08-13.63-14.47Z"/><path class="cls-1" d="M135.99,161.26c0-6.2,4.36-10.63,10.39-10.63s10.39,4.44,10.39,10.63-4.36,10.67-10.39,10.67-10.39-4.48-10.39-10.67ZM151.58,161.26c0-3.84-2.04-6.4-5.2-6.4s-5.2,2.56-5.2,6.4,2.08,6.44,5.2,6.44,5.2-2.56,5.2-6.44Z"/><path class="cls-1" d="M160.06,151.1h4.8v.8c0,1.08-.04,1.96-.36,3.6l.48.12c.76-2.68,2.16-4.52,5.44-4.52h1.48v5.04h-2.12c-2.92,0-4.52,1.76-4.52,5v10.31h-5.2v-20.35Z"/><path class="cls-1" d="M174.34,151.1h5.12v.92c0,.92-.08,1.64-.36,3.28l.48.12c1.24-3.24,3.56-4.8,6.56-4.8,4.96,0,8.88,4.08,8.88,10.63s-3.92,10.67-8.88,10.67c-3,0-5.2-1.56-6.48-4.84l-.44.16c.24,1.6.32,2.36.32,3.24v9.15h-5.2v-28.54ZM189.85,161.26c0-3.96-2.16-6.4-5.2-6.4s-5.2,2.44-5.2,6.4,2.16,6.44,5.2,6.44,5.2-2.44,5.2-6.44Z"/><polygon class="cls-1" points="90.12 19.95 48.45 44 48.45 44.01 48.45 101.74 64.11 110.78 64.11 53.04 90.12 38.01 90.12 19.95"/><polygon class="cls-1" points="106.75 19.95 106.75 65.94 90.12 65.94 90.12 48.77 74.47 57.81 74.47 116.73 90.12 125.79 90.12 79.94 106.75 79.94 106.75 96.98 122.41 87.95 122.41 28.99 106.75 19.95"/><polygon class="cls-1" points="106.75 125.81 148.43 101.77 148.43 101.75 148.43 44.03 132.77 34.99 132.77 92.73 106.75 107.76 106.75 125.81"/></svg>