<?xml version="1.0" encoding="UTF-8"?><svg id="Logos" xmlns="http://www.w3.org/2000/svg" width="383.78" height="72" viewBox="0 0 383.78 72"><defs><style>.cls-1{fill:#ffcf25;}.cls-1,.cls-2{stroke-width:0px;}.cls-2{fill:#fff;}</style></defs><path class="cls-1" d="M59.48,68H11.1c-1.56,0-2.7,0-3.61-.07-.96-.08-1.62-.24-2.18-.52-1.04-.53-1.87-1.36-2.4-2.4-.29-.57-.45-1.22-.52-2.18-.07-.92-.07-2.05-.07-3.61V10.83c0-1.56,0-2.69.07-3.61.08-.96.24-1.62.52-2.18.53-1.04,1.36-1.87,2.4-2.4.57-.29,1.22-.45,2.18-.52.92-.07,2.05-.07,3.61-.07h48.38c1.56,0,2.69,0,3.61.07.96.08,1.62.24,2.18.52,1.04.53,1.87,1.36,2.4,2.4.29.57.45,1.22.52,2.18.07.92.07,2.05.07,3.61v48.38c0,1.56,0,2.7-.07,3.61-.08.97-.24,1.62-.52,2.18-.53,1.04-1.36,1.87-2.4,2.4-.57.29-1.22.45-2.18.52-.92.07-2.05.07-3.61.07ZM11.1,4.78c-1.5,0-2.58,0-3.39.07-.56.05-.94.12-1.16.23-.52.27-.94.68-1.2,1.2-.11.22-.19.6-.23,1.16-.07.81-.07,1.89-.07,3.39v48.38c0,1.44,0,2.58.07,3.39.05.56.12.94.23,1.16.27.52.68.94,1.2,1.2.22.11.6.19,1.16.23.8.07,1.89.07,3.39.07h48.38c1.5,0,2.58,0,3.39-.07.56-.05.94-.12,1.16-.23.52-.27.94-.68,1.2-1.2.11-.22.19-.6.23-1.16.07-.8.07-1.89.07-3.39V10.83c0-1.5,0-2.58-.07-3.39-.05-.56-.12-.94-.23-1.16-.27-.52-.68-.94-1.2-1.2-.22-.11-.6-.19-1.16-.23-.81-.07-1.94-.07-3.39-.07H11.1Z"/><path class="cls-1" d="M16.99,18.93l18.2,35.4,18.4-35.4H16.99ZM32.39,33.03h-2.9v-2.9h2.9v2.9ZM32.39,28.63h-2.9v-2.9h2.9v2.9ZM36.69,37.33h-2.9v-2.9h2.9v2.9ZM36.69,33.03h-2.9v-2.9h2.9v2.9ZM36.69,28.63h-2.9v-2.9h2.9v2.9ZM41.09,33.03h-2.9v-2.9h2.9v2.9ZM38.19,28.63v-2.9h2.9v2.9h-2.9Z"/><path class="cls-2" d="M88.17,22.86h5.13v11.55h12.51v-11.55h5.13v28.07h-5.13v-11.87h-12.51v11.87h-5.13v-28.07Z"/><path class="cls-2" d="M115.28,36.89c0-8.42,5.49-14.52,13.51-14.52,6.66,0,11.27,3.89,12.55,9.22l-5.09,1.2c-1.04-3.77-3.53-5.93-7.46-5.93-5.01,0-8.18,4.17-8.18,10.02s3.29,10.02,8.34,10.02c4.01,0,6.46-2.21,7.5-6.21l4.85.56c-1.24,6.25-5.89,10.15-12.43,10.15-8.02,0-13.59-6.1-13.59-14.52Z"/><path class="cls-2" d="M145.35,22.86h9.9c6.82,0,11.07,3.29,11.07,9.22s-4.25,9.26-11.07,9.26h-4.77v9.58h-5.13v-28.07ZM155.26,37.05c3.85,0,5.86-1.64,5.86-4.97s-2.01-4.89-5.86-4.89h-4.77v9.87h4.77Z"/><path class="cls-2" d="M175.67,22.86h5.37l6.66,23.46h1.44l6.62-23.46h5.09l-8.1,28.07h-8.98l-8.1-28.07Z"/><path class="cls-2" d="M201.05,45.47c0-4.21,3.01-5.57,6.58-6.42l6.17-1.44v-.44c0-2.12-1.4-3.45-3.57-3.45s-3.45,1.2-3.89,3.13l-4.41-.52c.68-3.81,3.89-6.26,8.5-6.26,5.05,0,8.34,3.17,8.34,7.82v8.38c0,.52.16.72.52.72h1.12v3.93h-3.01c-1.96,0-2.81-.6-2.81-2.25,0-.48.08-1.08.28-1.8l-.44-.12c-1.44,3.09-3.57,4.49-6.66,4.49-4.05,0-6.74-2.25-6.74-5.78ZM209.11,47.6c2.77,0,4.69-2,4.69-5.17v-1.56l-4.53,1.08c-2.25.52-3.21,1.28-3.21,3.05,0,1.6,1.2,2.61,3.05,2.61Z"/><path class="cls-2" d="M237.18,30.52h5.01v20.41h-4.89v-.84c0-1.04.08-1.8.32-3.25l-.44-.16c-1.24,3.01-3.17,4.69-6.66,4.69-4.45,0-6.82-2.77-6.82-7.54v-13.31h5.01v12.87c0,2.69,1.16,4.05,3.73,4.05,2.73,0,4.73-2.08,4.73-5.69v-11.23Z"/><path class="cls-2" d="M253.1,46c0,.76.28,1,.84,1h2.45v3.93h-4.69c-2.37,0-3.61-1.28-3.61-3.69v-21.21h-2.97v-3.97h7.98v23.94Z"/><path class="cls-2" d="M260.6,45.8v-11.27h-3.65v-4.01h3.65v-5.17h5.01v5.17h5.05v4.01h-5.05v10.67c0,1.28.48,1.76,1.52,1.76h3.53v3.97h-4.45c-3.93,0-5.61-1.56-5.61-5.13Z"/><path class="cls-2" d="M282.45,22.86h8.9c6.3,0,9.9,2.85,9.9,7.62,0,4.41-2.69,6.74-6.54,7.18v.36c1.52.44,2.17,1.52,3.29,3.77l2.97,5.9c.44.88.84,1.04,1.56,1.04h.76v2.21h-1.24c-2.17,0-2.89-.8-3.57-2.25l-2.61-5.13c-1.44-2.89-1.96-4.29-5.01-4.29h-5.73v11.67h-2.69v-28.07ZM285.14,36.85h6.17c4.69,0,7.18-2.25,7.18-5.97s-2.41-5.65-7.18-5.65h-6.17v11.63Z"/><path class="cls-2" d="M305.67,45.68c0-4.13,3.21-5.37,6.3-6.13l7.06-1.69v-.56c0-2.73-1.88-4.65-4.93-4.65-2.85,0-4.57,1.56-5.05,4.09l-2.53-.44c.64-3.49,3.45-5.89,7.7-5.89,4.53,0,7.42,2.97,7.42,7.02v10.47c0,.6.16.84.6.84h1.16v2.21h-1.76c-1.64,0-2.49-.56-2.49-2.13,0-.72.12-1.52.32-2.49l-.32-.08c-1.24,3.33-3.41,5.09-7.1,5.09-3.93,0-6.38-2.21-6.38-5.65ZM312.45,49.12c3.81,0,6.58-3.01,6.58-7.74v-1.36l-6.38,1.52c-2.97.72-4.21,1.85-4.21,4.05s1.56,3.53,4.01,3.53Z"/><path class="cls-2" d="M326.36,40.86c0-6.09,3.89-10.47,9.22-10.47,3.53,0,5.81,1.88,7.22,5.37l.36-.12c-.24-1.64-.32-2.29-.32-3.29v-10.31h2.61v28.87h-2.61v-1.52c0-1,.08-1.68.32-3.33l-.32-.08c-1.44,3.49-3.73,5.33-7.26,5.33-5.33,0-9.22-4.29-9.22-10.47ZM342.8,40.86c0-4.81-2.85-8.18-6.9-8.18s-6.94,3.37-6.94,8.18,2.89,8.22,6.94,8.22,6.9-3.37,6.9-8.22Z"/><path class="cls-2" d="M349.78,45.68c0-4.13,3.21-5.37,6.3-6.13l7.06-1.69v-.56c0-2.73-1.88-4.65-4.93-4.65-2.85,0-4.57,1.56-5.05,4.09l-2.53-.44c.64-3.49,3.45-5.89,7.7-5.89,4.53,0,7.42,2.97,7.42,7.02v10.47c0,.6.16.84.6.84h1.16v2.21h-1.76c-1.64,0-2.49-.56-2.49-2.13,0-.72.12-1.52.32-2.49l-.32-.08c-1.24,3.33-3.41,5.09-7.1,5.09-3.93,0-6.38-2.21-6.38-5.65ZM356.55,49.12c3.81,0,6.58-3.01,6.58-7.74v-1.36l-6.38,1.52c-2.97.72-4.21,1.85-4.21,4.05s1.56,3.53,4.01,3.53Z"/><path class="cls-2" d="M371.79,30.84h2.53v1.16c0,1.44-.04,2.17-.32,3.53l.36.08c.88-2.77,2.49-4.77,5.89-4.77h1.24v2.53h-1.32c-3.53,0-5.77,2.85-5.77,7.58v9.99h-2.61v-20.09Z"/></svg>