<?xml version="1.0" encoding="UTF-8"?><svg id="Logos" xmlns="http://www.w3.org/2000/svg" width="415.26" height="72" viewBox="0 0 415.26 72"><defs><style>.cls-1{fill:#ffcf25;}.cls-1,.cls-2{stroke-width:0px;}.cls-2{fill:#fff;}</style></defs><path class="cls-1" d="M59.48,68H11.1c-1.56,0-2.7,0-3.61-.07-.96-.08-1.62-.24-2.18-.52-1.04-.53-1.87-1.36-2.4-2.4-.29-.57-.45-1.22-.52-2.18-.07-.92-.07-2.05-.07-3.61V10.83c0-1.56,0-2.69.07-3.61.08-.96.24-1.62.52-2.18.53-1.04,1.36-1.87,2.4-2.4.57-.29,1.22-.45,2.18-.52.92-.07,2.05-.07,3.61-.07h48.38c1.56,0,2.69,0,3.61.07.96.08,1.62.24,2.18.52,1.04.53,1.87,1.36,2.4,2.4.29.57.45,1.22.52,2.18.07.92.07,2.05.07,3.61v48.38c0,1.56,0,2.7-.07,3.61-.08.97-.24,1.62-.52,2.18-.53,1.04-1.36,1.87-2.4,2.4-.57.29-1.22.45-2.18.52-.92.07-2.05.07-3.61.07ZM11.1,4.78c-1.5,0-2.58,0-3.39.07-.56.05-.94.12-1.16.23-.52.27-.94.68-1.2,1.2-.11.22-.19.6-.23,1.16-.07.81-.07,1.89-.07,3.39v48.38c0,1.44,0,2.58.07,3.39.05.56.12.94.23,1.16.27.52.68.94,1.2,1.2.22.11.6.19,1.16.23.8.07,1.89.07,3.39.07h48.38c1.5,0,2.58,0,3.39-.07.56-.05.94-.12,1.16-.23.52-.27.94-.68,1.2-1.2.11-.22.19-.6.23-1.16.07-.8.07-1.89.07-3.39V10.83c0-1.5,0-2.58-.07-3.39-.05-.56-.12-.94-.23-1.16-.27-.52-.68-.94-1.2-1.2-.22-.11-.6-.19-1.16-.23-.81-.07-1.94-.07-3.39-.07H11.1Z"/><path class="cls-1" d="M16.99,18.93l18.2,35.4,18.4-35.4H16.99ZM32.39,33.03h-2.9v-2.9h2.9v2.9ZM32.39,28.63h-2.9v-2.9h2.9v2.9ZM36.69,37.33h-2.9v-2.9h2.9v2.9ZM36.69,33.03h-2.9v-2.9h2.9v2.9ZM36.69,28.63h-2.9v-2.9h2.9v2.9ZM41.09,33.03h-2.9v-2.9h2.9v2.9ZM38.19,28.63v-2.9h2.9v2.9h-2.9Z"/><path class="cls-2" d="M88.17,22.86h5.13v11.55h12.51v-11.55h5.13v28.07h-5.13v-11.87h-12.51v11.87h-5.13v-28.07Z"/><path class="cls-2" d="M115.28,36.89c0-8.42,5.49-14.52,13.51-14.52,6.66,0,11.27,3.89,12.55,9.22l-5.09,1.2c-1.04-3.77-3.53-5.94-7.46-5.94-5.01,0-8.18,4.17-8.18,10.03s3.29,10.03,8.34,10.03c4.01,0,6.46-2.21,7.5-6.22l4.85.56c-1.24,6.26-5.89,10.14-12.43,10.14-8.02,0-13.59-6.09-13.59-14.52Z"/><path class="cls-2" d="M145.35,22.86h9.9c6.82,0,11.07,3.29,11.07,9.22s-4.25,9.26-11.07,9.26h-4.77v9.58h-5.13v-28.07ZM155.25,37.05c3.85,0,5.86-1.64,5.86-4.97s-2.01-4.89-5.86-4.89h-4.77v9.86h4.77Z"/><path class="cls-2" d="M175.67,22.86h5.37l6.66,23.46h1.44l6.62-23.46h5.09l-8.1,28.07h-8.98l-8.1-28.07Z"/><path class="cls-2" d="M201.05,45.48c0-4.21,3.01-5.57,6.58-6.42l6.17-1.44v-.44c0-2.12-1.4-3.45-3.57-3.45s-3.45,1.2-3.89,3.13l-4.41-.52c.68-3.81,3.89-6.26,8.5-6.26,5.05,0,8.34,3.17,8.34,7.82v8.38c0,.52.16.72.52.72h1.12v3.93h-3.01c-1.96,0-2.81-.6-2.81-2.25,0-.48.08-1.08.28-1.8l-.44-.12c-1.44,3.09-3.57,4.49-6.66,4.49-4.05,0-6.74-2.25-6.74-5.77ZM209.11,47.6c2.77,0,4.69-2.01,4.69-5.17v-1.56l-4.53,1.08c-2.25.52-3.21,1.28-3.21,3.05,0,1.61,1.2,2.61,3.05,2.61Z"/><path class="cls-2" d="M237.18,30.52h5.01v20.41h-4.89v-.84c0-1.04.08-1.8.32-3.25l-.44-.16c-1.24,3.01-3.17,4.69-6.66,4.69-4.45,0-6.82-2.77-6.82-7.54v-13.31h5.01v12.87c0,2.69,1.16,4.05,3.73,4.05,2.73,0,4.73-2.09,4.73-5.7v-11.23Z"/><path class="cls-2" d="M253.1,46c0,.76.28,1,.84,1h2.45v3.93h-4.69c-2.37,0-3.61-1.28-3.61-3.69v-21.21h-2.97v-3.97h7.98v23.94Z"/><path class="cls-2" d="M260.6,45.8v-11.27h-3.65v-4.01h3.65v-5.17h5.01v5.17h5.05v4.01h-5.05v10.67c0,1.28.48,1.76,1.52,1.76h3.53v3.97h-4.45c-3.93,0-5.62-1.56-5.62-5.13Z"/><path class="cls-2" d="M280.69,43.11l2.65-.72c.96,4.17,4.09,6.58,8.46,6.58s7.3-2.33,7.3-5.57c0-3.85-3.13-4.61-7.58-5.41-5.01-.92-10.1-1.8-10.1-7.78,0-4.57,3.89-7.74,9.62-7.74,5.37,0,9.38,2.85,10.59,7.58l-2.69.64c-.8-3.57-3.89-5.86-7.9-5.86s-6.94,2.04-6.94,5.13c0,3.85,3.17,4.57,7.62,5.41,5.01.92,10.11,1.8,10.11,7.78,0,4.97-3.89,8.18-10.03,8.18-5.69,0-9.94-3.09-11.11-8.22Z"/><path class="cls-2" d="M305.47,40.86c0-6.42,4.17-10.47,9.38-10.47s9.3,3.81,9.3,9.98v1.04h-16.08c.2,4.53,3.01,7.66,6.98,7.66,3.21,0,5.17-1.56,6.18-4.49l2.33.52c-1.24,3.97-4.09,6.21-8.5,6.21-5.57,0-9.58-4.37-9.58-10.46ZM308.15,39.26h13.39c-.4-3.97-3.09-6.62-6.7-6.62s-6.17,2.69-6.7,6.62Z"/><path class="cls-2" d="M327.28,40.86c0-6.06,3.97-10.47,9.54-10.47,4.17,0,7.38,2.37,8.66,6.1l-2.45.8c-.96-2.93-3.25-4.61-6.22-4.61-4.05,0-6.94,3.41-6.94,8.18s2.89,8.22,6.94,8.22c3.37,0,5.37-1.72,6.3-4.85l2.37.36c-1.2,4.29-4.17,6.74-8.66,6.74-5.53,0-9.54-4.37-9.54-10.46Z"/><path class="cls-2" d="M350.02,30.84h2.53v1.16c0,1.44-.04,2.17-.32,3.53l.36.08c.88-2.77,2.49-4.77,5.89-4.77h1.24v2.53h-1.32c-3.53,0-5.77,2.85-5.77,7.58v9.98h-2.61v-20.09Z"/><path class="cls-2" d="M361.49,40.86c0-6.42,4.17-10.47,9.38-10.47s9.3,3.81,9.3,9.98v1.04h-16.08c.2,4.53,3.01,7.66,6.98,7.66,3.21,0,5.17-1.56,6.18-4.49l2.33.52c-1.24,3.97-4.09,6.21-8.5,6.21-5.57,0-9.58-4.37-9.58-10.46ZM364.17,39.26h13.39c-.4-3.97-3.09-6.62-6.7-6.62s-6.17,2.69-6.7,6.62Z"/><path class="cls-2" d="M386.35,46.32v-13.27h-4.41v-2.21h4.41v-5.37h2.61v5.37h5.53v2.21h-5.53v13.19c0,1.72.68,2.49,2.12,2.49h3.41v2.21h-3.53c-3.13,0-4.61-1.48-4.61-4.61Z"/><path class="cls-2" d="M396.9,45.32l2.49-.6c.76,2.81,2.97,4.45,6.13,4.45,2.93,0,4.93-1.56,4.93-3.81,0-2.37-1.96-2.81-5.41-3.45-3.41-.6-7.62-1.12-7.62-5.73,0-3.29,3.05-5.77,7.18-5.77s7.34,2.04,8.26,5.57l-2.53.44c-.6-2.33-2.73-3.81-5.73-3.81-2.81,0-4.65,1.44-4.65,3.45,0,2.37,1.93,2.85,5.37,3.45,3.41.6,7.66,1.16,7.66,5.73,0,3.61-3.05,6.09-7.46,6.09s-7.74-2.21-8.62-6.01Z"/></svg>