<?xml version="1.0" encoding="UTF-8"?><svg id="Logos" xmlns="http://www.w3.org/2000/svg" width="463.77" height="72" viewBox="0 0 463.77 72"><defs><style>.cls-1{fill-rule:evenodd;}.cls-1,.cls-2{fill:#ffcf25;}.cls-1,.cls-2,.cls-3{stroke-width:0px;}.cls-3{fill:#fff;}</style></defs><rect class="cls-2" x="37.22" y="25.76" width="2.9" height="2.9"/><rect class="cls-2" x="32.82" y="25.76" width="2.9" height="2.9"/><rect class="cls-2" x="32.82" y="30.16" width="2.9" height="2.9"/><rect class="cls-2" x="37.22" y="30.16" width="2.9" height="2.9"/><rect class="cls-2" x="32.82" y="34.46" width="2.9" height="2.9"/><path class="cls-1" d="M66.22,7.29c-.1-.9-.2-1.4-.4-1.8-.4-.8-1.1-1.5-2-2-.4-.2-.9-.3-1.8-.4-.8-.1-1.9-.1-3.5-.1H10.12c-1.6,0-2.7,0-3.5.1-.9.1-1.4.2-1.8.4-.43.21-.82.51-1.17.88-.07.06-.13.13-.19.2-.28.29-.51.63-.7.99-.21.42-.34.95-.41,1.8-.07.87-.07,1.97-.07,3.53v48.36c0,1.56,0,2.66.07,3.53.07.85.2,1.38.41,1.8.43.84,1.11,1.52,1.95,1.95.42.21.95.34,1.8.41.87.07,1.97.08,3.53.08h48.36c1.56,0,2.66,0,3.53-.08.8-.07,1.32-.19,1.73-.38.02-.01.05-.02.07-.03h.01s.05-.03.08-.04c.8-.4,1.5-1.1,2-2,.2-.4.3-.9.4-1.8.1-.9.1-2,.1-3.5V10.79c0-1.6,0-2.7-.1-3.5ZM34.22,54.36L16.02,18.96h36.6l-18.4,35.4Z"/><rect class="cls-2" x="28.52" y="30.16" width="2.9" height="2.9"/><rect class="cls-2" x="28.52" y="25.76" width="2.9" height="2.9"/><path class="cls-3" d="M88.17,22.86h5.13v11.55h12.51v-11.55h5.13v28.07h-5.13v-11.87h-12.51v11.87h-5.13v-28.07Z"/><path class="cls-3" d="M115.28,36.89c0-8.42,5.49-14.52,13.51-14.52,6.66,0,11.27,3.89,12.55,9.22l-5.09,1.2c-1.04-3.77-3.53-5.93-7.46-5.93-5.01,0-8.18,4.17-8.18,10.02s3.29,10.02,8.34,10.02c4.01,0,6.46-2.21,7.5-6.21l4.85.56c-1.24,6.25-5.89,10.15-12.43,10.15-8.02,0-13.59-6.1-13.59-14.52Z"/><path class="cls-3" d="M145.35,22.86h9.9c6.82,0,11.07,3.29,11.07,9.22s-4.25,9.26-11.07,9.26h-4.77v9.58h-5.13v-28.07ZM155.26,37.05c3.85,0,5.85-1.64,5.85-4.97s-2.01-4.89-5.85-4.89h-4.77v9.87h4.77Z"/><path class="cls-3" d="M175.67,22.86h5.37l6.66,23.46h1.44l6.62-23.46h5.09l-8.1,28.07h-8.98l-8.1-28.07Z"/><path class="cls-3" d="M201.05,45.47c0-4.21,3.01-5.57,6.58-6.42l6.18-1.44v-.44c0-2.12-1.4-3.45-3.57-3.45s-3.45,1.2-3.89,3.13l-4.41-.52c.68-3.81,3.89-6.26,8.5-6.26,5.05,0,8.34,3.17,8.34,7.82v8.38c0,.52.16.72.52.72h1.12v3.93h-3.01c-1.96,0-2.81-.6-2.81-2.25,0-.48.08-1.08.28-1.8l-.44-.12c-1.44,3.09-3.57,4.49-6.66,4.49-4.05,0-6.74-2.25-6.74-5.78ZM209.11,47.6c2.77,0,4.69-2,4.69-5.17v-1.56l-4.53,1.08c-2.25.52-3.21,1.28-3.21,3.05,0,1.6,1.2,2.61,3.05,2.61Z"/><path class="cls-3" d="M237.18,30.52h5.01v20.41h-4.89v-.84c0-1.04.08-1.8.32-3.25l-.44-.16c-1.24,3.01-3.17,4.69-6.66,4.69-4.45,0-6.82-2.77-6.82-7.54v-13.31h5.01v12.87c0,2.69,1.16,4.05,3.73,4.05,2.73,0,4.73-2.08,4.73-5.69v-11.23Z"/><path class="cls-3" d="M253.1,46c0,.76.28,1,.84,1h2.45v3.93h-4.69c-2.37,0-3.61-1.28-3.61-3.69v-21.21h-2.97v-3.97h7.98v23.94Z"/><path class="cls-3" d="M260.6,45.8v-11.27h-3.65v-4.01h3.65v-5.17h5.01v5.17h5.05v4.01h-5.05v10.67c0,1.28.48,1.76,1.52,1.76h3.53v3.97h-4.45c-3.93,0-5.61-1.56-5.61-5.13Z"/><path class="cls-3" d="M282.45,22.86h8.78c9.22,0,14.24,6.05,14.24,14.03s-5.01,14.04-14.24,14.04h-8.78v-28.07ZM291.23,48.56c7.82,0,11.51-5.25,11.51-11.67s-3.69-11.67-11.51-11.67h-6.09v23.34h6.09Z"/><path class="cls-3" d="M309,40.86c0-6.42,4.17-10.47,9.38-10.47s9.3,3.81,9.3,9.99v1.04h-16.08c.2,4.53,3.01,7.66,6.98,7.66,3.21,0,5.17-1.56,6.18-4.49l2.33.52c-1.24,3.97-4.09,6.22-8.5,6.22-5.57,0-9.58-4.37-9.58-10.47ZM311.68,39.26h13.39c-.4-3.97-3.09-6.62-6.7-6.62s-6.17,2.69-6.7,6.62Z"/><path class="cls-3" d="M330.81,40.86c0-6.09,3.89-10.47,9.22-10.47,3.53,0,5.81,1.88,7.22,5.37l.36-.12c-.24-1.64-.32-2.29-.32-3.29v-10.31h2.61v28.87h-2.61v-1.52c0-1,.08-1.68.32-3.33l-.32-.08c-1.44,3.49-3.73,5.33-7.26,5.33-5.33,0-9.22-4.29-9.22-10.47ZM347.25,40.86c0-4.81-2.85-8.18-6.9-8.18s-6.94,3.37-6.94,8.18,2.89,8.22,6.94,8.22,6.9-3.37,6.9-8.22Z"/><path class="cls-3" d="M359.8,50.93h-2.61v-17.88h-3.49v-2.21h6.1v20.09ZM356.43,24.9c0-1.08.88-1.93,1.93-1.93s1.96.84,1.96,1.93-.92,1.96-1.96,1.96-1.93-.84-1.93-1.96Z"/><path class="cls-3" d="M364.86,40.86c0-6.05,3.97-10.47,9.54-10.47,4.17,0,7.38,2.37,8.66,6.09l-2.45.8c-.96-2.93-3.25-4.61-6.22-4.61-4.05,0-6.94,3.41-6.94,8.18s2.89,8.22,6.94,8.22c3.37,0,5.37-1.72,6.3-4.85l2.37.36c-1.2,4.29-4.17,6.74-8.66,6.74-5.53,0-9.54-4.37-9.54-10.47Z"/><path class="cls-3" d="M386.19,45.68c0-4.13,3.21-5.37,6.3-6.13l7.06-1.69v-.56c0-2.73-1.88-4.65-4.93-4.65-2.85,0-4.57,1.56-5.05,4.09l-2.53-.44c.64-3.49,3.45-5.89,7.7-5.89,4.53,0,7.42,2.97,7.42,7.02v10.47c0,.6.16.84.6.84h1.16v2.21h-1.76c-1.64,0-2.49-.56-2.49-2.13,0-.72.12-1.52.32-2.49l-.32-.08c-1.24,3.33-3.41,5.09-7.1,5.09-3.93,0-6.38-2.21-6.38-5.65ZM392.96,49.12c3.81,0,6.58-3.01,6.58-7.74v-1.36l-6.38,1.52c-2.97.72-4.21,1.85-4.21,4.05s1.56,3.53,4.01,3.53Z"/><path class="cls-3" d="M409.93,46.32v-13.27h-4.41v-2.21h4.41v-5.37h2.61v5.37h5.53v2.21h-5.53v13.19c0,1.72.68,2.49,2.12,2.49h3.41v2.21h-3.53c-3.13,0-4.61-1.48-4.61-4.61Z"/><path class="cls-3" d="M420.59,40.86c0-6.42,4.17-10.47,9.38-10.47s9.3,3.81,9.3,9.99v1.04h-16.08c.2,4.53,3.01,7.66,6.98,7.66,3.21,0,5.17-1.56,6.17-4.49l2.33.52c-1.24,3.97-4.09,6.22-8.5,6.22-5.57,0-9.58-4.37-9.58-10.47ZM423.28,39.26h13.39c-.4-3.97-3.09-6.62-6.7-6.62s-6.18,2.69-6.7,6.62Z"/><path class="cls-3" d="M442.41,40.86c0-6.09,3.89-10.47,9.22-10.47,3.53,0,5.81,1.88,7.22,5.37l.36-.12c-.24-1.64-.32-2.29-.32-3.29v-10.31h2.61v28.87h-2.61v-1.52c0-1,.08-1.68.32-3.33l-.32-.08c-1.44,3.49-3.73,5.33-7.26,5.33-5.33,0-9.22-4.29-9.22-10.47ZM458.85,40.86c0-4.81-2.85-8.18-6.9-8.18s-6.94,3.37-6.94,8.18,2.89,8.22,6.94,8.22,6.9-3.37,6.9-8.22Z"/></svg>