<?xml version="1.0" encoding="UTF-8"?><svg id="Logos" xmlns="http://www.w3.org/2000/svg" width="379.36" height="72" viewBox="0 0 379.36 72"><defs><style>.cls-1{fill:#000;}.cls-1,.cls-2{stroke-width:0px;}.cls-2{fill:#ffcf25;}</style></defs><path class="cls-2" d="M17.03,18.93l18.2,35.4,18.3-35.4H17.03ZM32.33,32.61h-2.9v-2.9h2.9v2.9ZM32.33,28.21h-2.9v-2.9h2.9v2.9ZM36.73,36.91h-2.9v-2.9h2.9v2.9ZM36.73,32.61h-2.9v-2.9h2.9v2.9ZM36.73,28.21h-2.9v-2.9h2.9v2.9ZM41.03,32.61h-2.9v-2.9h2.9v2.9ZM38.13,28.21v-2.9h2.9v2.9h-2.9Z"/><path class="cls-2" d="M59.47,68H11.09c-1.56,0-2.7,0-3.61-.07-.96-.08-1.62-.24-2.18-.52-1.04-.53-1.87-1.36-2.4-2.4-.29-.57-.45-1.22-.52-2.18-.07-.92-.07-2.05-.07-3.61V10.83c0-1.56,0-2.69.07-3.61.08-.96.24-1.62.52-2.18.53-1.04,1.36-1.87,2.4-2.4.57-.29,1.22-.45,2.18-.52.92-.07,2.05-.07,3.61-.07h48.38c1.56,0,2.69,0,3.61.07.96.08,1.62.24,2.18.52,1.04.53,1.87,1.36,2.4,2.4.29.57.45,1.22.52,2.18.07.92.07,2.05.07,3.61v48.38c0,1.56,0,2.7-.07,3.61-.08.97-.24,1.62-.52,2.18-.53,1.04-1.36,1.87-2.4,2.4-.57.29-1.22.45-2.18.52-.92.07-2.05.07-3.61.07ZM11.09,4.78c-1.5,0-2.58,0-3.39.07-.56.05-.94.12-1.16.23-.52.27-.94.68-1.2,1.2-.11.22-.19.6-.23,1.16-.07.81-.07,1.89-.07,3.39v48.38c0,1.44,0,2.58.07,3.39.05.56.12.94.23,1.16.27.52.68.94,1.2,1.2.22.11.6.19,1.16.23.8.07,1.89.07,3.39.07h48.38c1.5,0,2.58,0,3.39-.07.56-.05.94-.12,1.16-.23.52-.27.94-.68,1.2-1.2.11-.22.19-.6.23-1.16.07-.8.07-1.89.07-3.39V10.83c0-1.5,0-2.58-.07-3.39-.05-.56-.12-.94-.23-1.16-.27-.52-.68-.94-1.2-1.2-.22-.11-.6-.19-1.16-.23-.81-.07-1.94-.07-3.39-.07H11.09Z"/><path class="cls-1" d="M88.13,22.86h5.33v11.47h12.23v-11.47h5.37v28.07h-5.37v-11.79h-12.23v11.79h-5.33v-28.07Z"/><path class="cls-1" d="M114.96,36.89c0-8.42,5.53-14.52,13.55-14.52,6.74,0,11.35,3.89,12.59,9.18l-5.29,1.28c-1-3.69-3.45-5.77-7.3-5.77-4.89,0-7.98,4.05-7.98,9.82s3.21,9.83,8.18,9.83c3.93,0,6.34-2.13,7.34-6.06l5.01.56c-1.2,6.29-5.85,10.19-12.43,10.19-8.1,0-13.67-6.1-13.67-14.52Z"/><path class="cls-1" d="M144.71,22.86h10.03c6.86,0,11.15,3.29,11.15,9.3s-4.29,9.3-11.15,9.3h-4.69v9.46h-5.33v-28.07ZM154.74,37.01c3.73,0,5.73-1.6,5.73-4.85s-2.01-4.81-5.73-4.81h-4.69v9.66h4.69Z"/><path class="cls-1" d="M174.42,22.86h5.57l6.5,23.26h1.48l6.46-23.26h5.29l-7.98,28.07h-9.34l-7.98-28.07Z"/><path class="cls-1" d="M199.57,45.47c0-4.21,2.97-5.61,6.58-6.46l6.1-1.4v-.48c0-2.04-1.32-3.33-3.45-3.33s-3.37,1.16-3.77,3.09l-4.57-.52c.68-3.85,3.93-6.34,8.54-6.34,5.09,0,8.42,3.21,8.42,7.9v8.22c0,.52.16.68.52.68h1.12v4.09h-3.13c-1.97,0-2.85-.64-2.85-2.25,0-.48.08-1.04.28-1.77l-.44-.16c-1.44,3.13-3.57,4.49-6.58,4.49-4.13,0-6.78-2.29-6.78-5.78ZM207.71,47.48c2.65,0,4.53-1.93,4.53-4.97v-1.6l-4.37,1.04c-2.21.52-3.13,1.28-3.13,2.97s1.16,2.57,2.97,2.57Z"/><path class="cls-1" d="M235.33,30.52h5.21v20.41h-5.09v-.8c0-1.04.08-1.8.32-3.29l-.44-.12c-1.24,2.97-3.17,4.69-6.66,4.69-4.45,0-6.78-2.81-6.78-7.58v-13.31h5.21v12.87c0,2.61,1.12,3.89,3.61,3.89,2.65,0,4.61-2,4.61-5.57v-11.19Z"/><path class="cls-1" d="M251.21,45.84c0,.76.28,1,.84,1h2.37v4.09h-4.81c-2.37,0-3.61-1.32-3.61-3.77v-20.97h-2.89v-4.13h8.1v23.78Z"/><path class="cls-1" d="M258.27,45.76v-11.11h-3.61v-4.13h3.61v-5.17h5.21v5.17h4.97v4.13h-4.97v10.47c0,1.24.44,1.68,1.44,1.68h3.53v4.13h-4.53c-3.97,0-5.65-1.6-5.65-5.17Z"/><path class="cls-1" d="M279.48,22.86h8.9c6.29,0,9.9,2.85,9.9,7.62,0,4.41-2.69,6.74-6.54,7.18v.36c1.52.44,2.17,1.52,3.29,3.77l2.97,5.9c.44.88.84,1.04,1.56,1.04h.76v2.21h-1.24c-2.17,0-2.89-.8-3.57-2.25l-2.61-5.13c-1.44-2.89-1.96-4.29-5.01-4.29h-5.73v11.67h-2.69v-28.07ZM282.17,36.85h6.17c4.69,0,7.18-2.25,7.18-5.97s-2.41-5.65-7.18-5.65h-6.17v11.63Z"/><path class="cls-1" d="M302.34,45.68c0-4.13,3.21-5.37,6.3-6.13l7.06-1.69v-.56c0-2.73-1.88-4.65-4.93-4.65-2.85,0-4.57,1.56-5.05,4.09l-2.53-.44c.64-3.49,3.45-5.89,7.7-5.89,4.53,0,7.42,2.97,7.42,7.02v10.47c0,.6.16.84.6.84h1.16v2.21h-1.76c-1.64,0-2.49-.56-2.49-2.13,0-.72.12-1.52.32-2.49l-.32-.08c-1.24,3.33-3.41,5.09-7.1,5.09-3.93,0-6.38-2.21-6.38-5.65ZM309.12,49.12c3.81,0,6.58-3.01,6.58-7.74v-1.36l-6.38,1.52c-2.97.72-4.21,1.85-4.21,4.05s1.56,3.53,4.01,3.53Z"/><path class="cls-1" d="M322.67,40.86c0-6.09,3.89-10.47,9.22-10.47,3.53,0,5.81,1.88,7.22,5.37l.36-.12c-.24-1.64-.32-2.29-.32-3.29v-10.31h2.61v28.87h-2.61v-1.52c0-1,.08-1.68.32-3.33l-.32-.08c-1.44,3.49-3.73,5.33-7.26,5.33-5.33,0-9.22-4.29-9.22-10.47ZM339.11,40.86c0-4.81-2.85-8.18-6.9-8.18s-6.94,3.37-6.94,8.18,2.89,8.22,6.94,8.22,6.9-3.37,6.9-8.22Z"/><path class="cls-1" d="M345.73,45.68c0-4.13,3.21-5.37,6.29-6.13l7.06-1.69v-.56c0-2.73-1.88-4.65-4.93-4.65-2.85,0-4.57,1.56-5.05,4.09l-2.53-.44c.64-3.49,3.45-5.89,7.7-5.89,4.53,0,7.42,2.97,7.42,7.02v10.47c0,.6.16.84.6.84h1.16v2.21h-1.76c-1.64,0-2.49-.56-2.49-2.13,0-.72.12-1.52.32-2.49l-.32-.08c-1.24,3.33-3.41,5.09-7.1,5.09-3.93,0-6.38-2.21-6.38-5.65ZM352.5,49.12c3.81,0,6.58-3.01,6.58-7.74v-1.36l-6.38,1.52c-2.97.72-4.21,1.85-4.21,4.05s1.56,3.53,4.01,3.53Z"/><path class="cls-1" d="M367.38,30.84h2.53v1.16c0,1.44-.04,2.17-.32,3.53l.36.08c.88-2.77,2.49-4.77,5.89-4.77h1.24v2.53h-1.32c-3.53,0-5.77,2.85-5.77,7.58v9.99h-2.61v-20.09Z"/></svg>