<?xml version="1.0" encoding="UTF-8"?><svg id="Logos" xmlns="http://www.w3.org/2000/svg" width="410.12" height="72" viewBox="0 0 410.12 72"><defs><style>.cls-1{fill:#000;}.cls-1,.cls-2{stroke-width:0px;}.cls-2{fill:#ffcf25;}</style></defs><path class="cls-2" d="M17.03,18.93l18.2,35.4,18.3-35.4H17.03ZM32.33,32.61h-2.9v-2.9h2.9v2.9ZM32.33,28.21h-2.9v-2.9h2.9v2.9ZM36.73,36.91h-2.9v-2.9h2.9v2.9ZM36.73,32.61h-2.9v-2.9h2.9v2.9ZM36.73,28.21h-2.9v-2.9h2.9v2.9ZM41.03,32.61h-2.9v-2.9h2.9v2.9ZM38.13,28.21v-2.9h2.9v2.9h-2.9Z"/><path class="cls-2" d="M59.47,68H11.09c-1.56,0-2.7,0-3.61-.07-.96-.08-1.62-.24-2.18-.52-1.04-.53-1.87-1.36-2.4-2.4-.29-.57-.45-1.22-.52-2.18-.07-.92-.07-2.05-.07-3.61V10.83c0-1.56,0-2.69.07-3.61.08-.96.24-1.62.52-2.18.53-1.04,1.36-1.87,2.4-2.4.57-.29,1.22-.45,2.18-.52.92-.07,2.05-.07,3.61-.07h48.38c1.56,0,2.69,0,3.61.07.96.08,1.62.24,2.18.52,1.04.53,1.87,1.36,2.4,2.4.29.57.45,1.22.52,2.18.07.92.07,2.05.07,3.61v48.38c0,1.56,0,2.7-.07,3.61-.08.97-.24,1.62-.52,2.18-.53,1.04-1.36,1.87-2.4,2.4-.57.29-1.22.45-2.18.52-.92.07-2.05.07-3.61.07ZM11.09,4.78c-1.5,0-2.58,0-3.39.07-.56.05-.94.12-1.16.23-.52.27-.94.68-1.2,1.2-.11.22-.19.6-.23,1.16-.07.81-.07,1.89-.07,3.39v48.38c0,1.44,0,2.58.07,3.39.05.56.12.94.23,1.16.27.52.68.94,1.2,1.2.22.11.6.19,1.16.23.8.07,1.89.07,3.39.07h48.38c1.5,0,2.58,0,3.39-.07.56-.05.94-.12,1.16-.23.52-.27.94-.68,1.2-1.2.11-.22.19-.6.23-1.16.07-.8.07-1.89.07-3.39V10.83c0-1.5,0-2.58-.07-3.39-.05-.56-.12-.94-.23-1.16-.27-.52-.68-.94-1.2-1.2-.22-.11-.6-.19-1.16-.23-.81-.07-1.94-.07-3.39-.07H11.09Z"/><path class="cls-1" d="M88.13,22.86h5.33v11.47h12.23v-11.47h5.37v28.07h-5.37v-11.79h-12.23v11.79h-5.33v-28.07Z"/><path class="cls-1" d="M114.96,36.89c0-8.42,5.53-14.52,13.55-14.52,6.74,0,11.35,3.89,12.59,9.18l-5.29,1.28c-1-3.69-3.45-5.77-7.3-5.77-4.89,0-7.98,4.05-7.98,9.82s3.21,9.82,8.18,9.82c3.93,0,6.34-2.12,7.34-6.05l5.01.56c-1.2,6.3-5.86,10.18-12.43,10.18-8.1,0-13.67-6.09-13.67-14.52Z"/><path class="cls-1" d="M144.71,22.86h10.03c6.86,0,11.15,3.29,11.15,9.3s-4.29,9.3-11.15,9.3h-4.69v9.46h-5.33v-28.07ZM154.73,37.01c3.73,0,5.73-1.6,5.73-4.85s-2.01-4.81-5.73-4.81h-4.69v9.66h4.69Z"/><path class="cls-1" d="M174.42,22.86h5.57l6.5,23.26h1.48l6.46-23.26h5.29l-7.98,28.07h-9.34l-7.98-28.07Z"/><path class="cls-1" d="M199.57,45.48c0-4.21,2.97-5.62,6.58-6.46l6.1-1.4v-.48c0-2.04-1.32-3.33-3.45-3.33s-3.37,1.16-3.77,3.09l-4.57-.52c.68-3.85,3.93-6.34,8.54-6.34,5.09,0,8.42,3.21,8.42,7.9v8.22c0,.52.16.68.52.68h1.12v4.09h-3.13c-1.96,0-2.85-.64-2.85-2.25,0-.48.08-1.04.28-1.76l-.44-.16c-1.44,3.13-3.57,4.49-6.58,4.49-4.13,0-6.78-2.29-6.78-5.77ZM207.71,47.48c2.65,0,4.53-1.92,4.53-4.97v-1.6l-4.37,1.04c-2.21.52-3.13,1.28-3.13,2.97s1.16,2.57,2.97,2.57Z"/><path class="cls-1" d="M235.33,30.52h5.21v20.41h-5.09v-.8c0-1.04.08-1.8.32-3.29l-.44-.12c-1.24,2.97-3.17,4.69-6.66,4.69-4.45,0-6.78-2.81-6.78-7.58v-13.31h5.21v12.87c0,2.61,1.12,3.89,3.61,3.89,2.65,0,4.61-2.01,4.61-5.57v-11.19Z"/><path class="cls-1" d="M251.21,45.84c0,.76.28,1,.84,1h2.37v4.09h-4.81c-2.37,0-3.61-1.32-3.61-3.77v-20.97h-2.89v-4.13h8.1v23.78Z"/><path class="cls-1" d="M258.27,45.76v-11.11h-3.61v-4.13h3.61v-5.17h5.21v5.17h4.97v4.13h-4.97v10.47c0,1.24.44,1.68,1.44,1.68h3.53v4.13h-4.53c-3.97,0-5.65-1.6-5.65-5.17Z"/><path class="cls-1" d="M277.72,43.11l2.65-.72c.96,4.17,4.09,6.58,8.46,6.58s7.3-2.33,7.3-5.57c0-3.85-3.13-4.61-7.58-5.41-5.01-.92-10.1-1.8-10.1-7.78,0-4.57,3.89-7.74,9.62-7.74,5.37,0,9.38,2.85,10.59,7.58l-2.69.64c-.8-3.57-3.89-5.86-7.9-5.86s-6.94,2.04-6.94,5.13c0,3.85,3.17,4.57,7.62,5.41,5.01.92,10.11,1.8,10.11,7.78,0,4.97-3.89,8.18-10.03,8.18-5.69,0-9.95-3.09-11.11-8.22Z"/><path class="cls-1" d="M302.14,40.86c0-6.42,4.17-10.47,9.38-10.47s9.3,3.81,9.3,9.98v1.04h-16.08c.2,4.53,3.01,7.66,6.98,7.66,3.21,0,5.17-1.56,6.18-4.49l2.33.52c-1.24,3.97-4.09,6.21-8.5,6.21-5.57,0-9.58-4.37-9.58-10.46ZM304.83,39.26h13.39c-.4-3.97-3.09-6.62-6.7-6.62s-6.17,2.69-6.7,6.62Z"/><path class="cls-1" d="M323.59,40.86c0-6.06,3.97-10.47,9.54-10.47,4.17,0,7.38,2.37,8.66,6.1l-2.45.8c-.96-2.93-3.25-4.61-6.22-4.61-4.05,0-6.94,3.41-6.94,8.18s2.89,8.22,6.94,8.22c3.37,0,5.37-1.72,6.3-4.85l2.37.36c-1.2,4.29-4.17,6.74-8.66,6.74-5.53,0-9.54-4.37-9.54-10.46Z"/><path class="cls-1" d="M345.97,30.84h2.53v1.16c0,1.44-.04,2.17-.32,3.53l.36.08c.88-2.77,2.49-4.77,5.89-4.77h1.24v2.53h-1.32c-3.53,0-5.77,2.85-5.77,7.58v9.98h-2.61v-20.09Z"/><path class="cls-1" d="M357.08,40.86c0-6.42,4.17-10.47,9.38-10.47s9.3,3.81,9.3,9.98v1.04h-16.08c.2,4.53,3.01,7.66,6.98,7.66,3.21,0,5.17-1.56,6.17-4.49l2.33.52c-1.24,3.97-4.09,6.21-8.5,6.21-5.57,0-9.58-4.37-9.58-10.46ZM359.76,39.26h13.39c-.4-3.97-3.09-6.62-6.7-6.62s-6.18,2.69-6.7,6.62Z"/><path class="cls-1" d="M381.58,46.32v-13.27h-4.41v-2.21h4.41v-5.37h2.61v5.37h5.53v2.21h-5.53v13.19c0,1.72.68,2.49,2.12,2.49h3.41v2.21h-3.53c-3.13,0-4.61-1.48-4.61-4.61Z"/><path class="cls-1" d="M391.76,45.32l2.49-.6c.76,2.81,2.97,4.45,6.13,4.45,2.93,0,4.93-1.56,4.93-3.81,0-2.37-1.96-2.81-5.41-3.45-3.41-.6-7.62-1.12-7.62-5.73,0-3.29,3.05-5.77,7.18-5.77s7.34,2.04,8.26,5.57l-2.53.44c-.6-2.33-2.73-3.81-5.73-3.81-2.81,0-4.65,1.44-4.65,3.45,0,2.37,1.93,2.85,5.37,3.45,3.41.6,7.66,1.16,7.66,5.73,0,3.61-3.05,6.09-7.46,6.09s-7.74-2.21-8.62-6.01Z"/></svg>