<?xml version="1.0" encoding="UTF-8"?><svg id="Logos" xmlns="http://www.w3.org/2000/svg" width="272.58" height="72" viewBox="0 0 272.58 72"><defs><style>.cls-1{fill:#ffcf25;}.cls-1,.cls-2{stroke-width:0px;}.cls-2{fill:#fff;}</style></defs><path class="cls-1" d="M17.47,18.96l18.2,35.4,18.4-35.4H17.47ZM32.87,33.06h-2.9v-2.9h2.9v2.9ZM32.87,28.66h-2.9v-2.9h2.9v2.9ZM37.17,37.36h-2.9v-2.9h2.9v2.9ZM37.17,33.06h-2.9v-2.9h2.9v2.9ZM37.17,28.66h-2.9v-2.9h2.9v2.9ZM41.57,33.06h-2.9v-2.9h2.9v2.9ZM38.67,28.66v-2.9h2.9v2.9h-2.9Z"/><path class="cls-1" d="M59.46,68.98H11.09c-1.56,0-2.7,0-3.61-.07-.96-.08-1.62-.24-2.18-.52-1.04-.53-1.87-1.36-2.4-2.4-.29-.57-.45-1.22-.52-2.18-.07-.92-.07-2.05-.07-3.61V11.81c0-1.56,0-2.69.07-3.61.08-.96.24-1.62.52-2.18.53-1.04,1.36-1.87,2.4-2.4.57-.29,1.22-.45,2.18-.52.92-.07,2.05-.07,3.61-.07h48.38c1.56,0,2.69,0,3.61.07.96.08,1.62.24,2.18.52,1.04.53,1.87,1.36,2.4,2.4.29.57.45,1.22.52,2.18.07.92.07,2.05.07,3.61v48.38c0,1.56,0,2.7-.07,3.61-.08.97-.24,1.62-.52,2.18-.53,1.04-1.36,1.87-2.4,2.4-.57.29-1.22.45-2.18.52-.92.07-2.05.07-3.61.07ZM11.09,5.76c-1.5,0-2.58,0-3.39.07-.56.05-.94.12-1.16.23-.52.27-.94.68-1.2,1.2-.11.22-.19.6-.23,1.16-.07.81-.07,1.89-.07,3.39v48.38c0,1.44,0,2.58.07,3.39.05.56.12.94.23,1.16.27.52.68.94,1.2,1.2.22.11.6.19,1.16.23.8.07,1.89.07,3.39.07h48.38c1.5,0,2.58,0,3.39-.07.56-.05.94-.12,1.16-.23.52-.27.94-.68,1.2-1.2.11-.22.19-.6.23-1.16.07-.8.07-1.89.07-3.39V11.81c0-1.5,0-2.58-.07-3.39-.05-.56-.12-.94-.23-1.16-.27-.52-.68-.94-1.2-1.2-.22-.11-.6-.19-1.16-.23-.81-.07-1.94-.07-3.39-.07H11.09Z"/><path class="cls-2" d="M88.12,22.99h5.12v11.52h12.48v-11.52h5.12v28h-5.12v-11.84h-12.48v11.84h-5.12v-28Z"/><path class="cls-2" d="M115.16,36.99c0-8.4,5.48-14.48,13.48-14.48,6.64,0,11.24,3.88,12.52,9.2l-5.08,1.2c-1.04-3.76-3.52-5.92-7.44-5.92-5,0-8.16,4.16-8.16,10s3.28,10,8.32,10c4,0,6.44-2.2,7.48-6.2l4.84.56c-1.24,6.24-5.88,10.12-12.4,10.12-8,0-13.56-6.08-13.56-14.48Z"/><path class="cls-2" d="M145.16,22.99h9.88c6.8,0,11.04,3.28,11.04,9.2s-4.24,9.24-11.04,9.24h-4.76v9.56h-5.12v-28ZM155.04,37.15c3.84,0,5.84-1.64,5.84-4.96s-2-4.88-5.84-4.88h-4.76v9.84h4.76Z"/><path class="cls-2" d="M175.4,22.99h5.36l6.64,23.4h1.44l6.6-23.4h5.08l-8.08,28h-8.96l-8.08-28Z"/><path class="cls-2" d="M200.72,45.55c0-4.2,3-5.56,6.56-6.4l6.16-1.44v-.44c0-2.12-1.4-3.44-3.56-3.44s-3.44,1.2-3.88,3.12l-4.4-.52c.68-3.8,3.88-6.24,8.48-6.24,5.04,0,8.32,3.16,8.32,7.8v8.36c0,.52.16.72.52.72h1.12v3.92h-3c-1.96,0-2.8-.6-2.8-2.24,0-.48.08-1.08.28-1.8l-.44-.12c-1.44,3.08-3.56,4.48-6.64,4.48-4.04,0-6.72-2.24-6.72-5.76ZM208.76,47.66c2.76,0,4.68-2,4.68-5.16v-1.56l-4.52,1.08c-2.24.52-3.2,1.28-3.2,3.04,0,1.6,1.2,2.6,3.04,2.6Z"/><path class="cls-2" d="M236.76,30.63h5v20.36h-4.88v-.84c0-1.04.08-1.8.32-3.24l-.44-.16c-1.24,3-3.16,4.68-6.64,4.68-4.44,0-6.8-2.76-6.8-7.52v-13.28h5v12.84c0,2.68,1.16,4.04,3.72,4.04,2.72,0,4.72-2.08,4.72-5.68v-11.2Z"/><path class="cls-2" d="M252.64,46.07c0,.76.28,1,.84,1h2.44v3.92h-4.68c-2.36,0-3.6-1.28-3.6-3.68v-21.16h-2.96v-3.96h7.96v23.88Z"/><path class="cls-2" d="M260.12,45.87v-11.24h-3.64v-4h3.64v-5.16h5v5.16h5.04v4h-5.04v10.64c0,1.28.48,1.76,1.52,1.76h3.52v3.96h-4.44c-3.92,0-5.6-1.56-5.6-5.12Z"/></svg>