<?xml version="1.0" encoding="UTF-8"?><svg id="Logos" xmlns="http://www.w3.org/2000/svg" width="457.92" height="72" viewBox="0 0 457.92 72"><defs><style>.cls-1{fill:#000;}.cls-1,.cls-2,.cls-3{stroke-width:0px;}.cls-2{fill-rule:evenodd;}.cls-2,.cls-3{fill:#ffcf25;}</style></defs><rect class="cls-3" x="37.22" y="25.76" width="2.9" height="2.9"/><rect class="cls-3" x="32.82" y="25.76" width="2.9" height="2.9"/><rect class="cls-3" x="32.82" y="30.16" width="2.9" height="2.9"/><rect class="cls-3" x="37.22" y="30.16" width="2.9" height="2.9"/><rect class="cls-3" x="32.82" y="34.46" width="2.9" height="2.9"/><path class="cls-2" d="M66.22,7.29c-.1-.9-.2-1.4-.4-1.8-.4-.8-1.1-1.5-2-2-.4-.2-.9-.3-1.8-.4-.8-.1-1.9-.1-3.5-.1H10.12c-1.6,0-2.7,0-3.5.1-.9.1-1.4.2-1.8.4-.43.21-.82.51-1.17.88-.07.06-.13.13-.19.2-.28.29-.51.63-.7.99-.21.42-.34.95-.41,1.8-.07.87-.07,1.97-.07,3.53v48.36c0,1.56,0,2.66.07,3.53.07.85.2,1.38.41,1.8.43.84,1.11,1.52,1.95,1.95.42.21.95.34,1.8.41.87.07,1.97.08,3.53.08h48.36c1.56,0,2.66,0,3.53-.08.8-.07,1.32-.19,1.73-.38.02-.01.05-.02.07-.03h.01s.05-.03.08-.04c.8-.4,1.5-1.1,2-2,.2-.4.3-.9.4-1.8.1-.9.1-2,.1-3.5V10.79c0-1.6,0-2.7-.1-3.5ZM34.22,54.36L16.02,18.96h36.6l-18.4,35.4Z"/><rect class="cls-3" x="28.52" y="30.16" width="2.9" height="2.9"/><rect class="cls-3" x="28.52" y="25.76" width="2.9" height="2.9"/><path class="cls-1" d="M88.13,22.86h5.33v11.47h12.23v-11.47h5.37v28.07h-5.37v-11.79h-12.23v11.79h-5.33v-28.07Z"/><path class="cls-1" d="M114.96,36.89c0-8.42,5.53-14.52,13.55-14.52,6.74,0,11.35,3.89,12.59,9.18l-5.29,1.28c-1-3.69-3.45-5.77-7.3-5.77-4.89,0-7.98,4.05-7.98,9.82s3.21,9.83,8.18,9.83c3.93,0,6.34-2.13,7.34-6.06l5.01.56c-1.2,6.29-5.85,10.19-12.43,10.19-8.1,0-13.67-6.1-13.67-14.52Z"/><path class="cls-1" d="M144.71,22.86h10.03c6.86,0,11.15,3.29,11.15,9.3s-4.29,9.3-11.15,9.3h-4.69v9.46h-5.33v-28.07ZM154.74,37.01c3.73,0,5.73-1.6,5.73-4.85s-2.01-4.81-5.73-4.81h-4.69v9.66h4.69Z"/><path class="cls-1" d="M174.42,22.86h5.57l6.5,23.26h1.48l6.46-23.26h5.29l-7.98,28.07h-9.34l-7.98-28.07Z"/><path class="cls-1" d="M199.57,45.47c0-4.21,2.97-5.61,6.58-6.46l6.1-1.4v-.48c0-2.04-1.32-3.33-3.45-3.33s-3.37,1.16-3.77,3.09l-4.57-.52c.68-3.85,3.93-6.34,8.54-6.34,5.09,0,8.42,3.21,8.42,7.9v8.22c0,.52.16.68.52.68h1.12v4.09h-3.13c-1.97,0-2.85-.64-2.85-2.25,0-.48.08-1.04.28-1.77l-.44-.16c-1.44,3.13-3.57,4.49-6.58,4.49-4.13,0-6.78-2.29-6.78-5.78ZM207.71,47.48c2.65,0,4.53-1.93,4.53-4.97v-1.6l-4.37,1.04c-2.21.52-3.13,1.28-3.13,2.97s1.16,2.57,2.97,2.57Z"/><path class="cls-1" d="M235.33,30.52h5.21v20.41h-5.09v-.8c0-1.04.08-1.8.32-3.29l-.44-.12c-1.24,2.97-3.17,4.69-6.66,4.69-4.45,0-6.78-2.81-6.78-7.58v-13.31h5.21v12.87c0,2.61,1.12,3.89,3.61,3.89,2.65,0,4.61-2,4.61-5.57v-11.19Z"/><path class="cls-1" d="M251.21,45.84c0,.76.28,1,.84,1h2.37v4.09h-4.81c-2.37,0-3.61-1.32-3.61-3.77v-20.97h-2.89v-4.13h8.1v23.78Z"/><path class="cls-1" d="M258.27,45.76v-11.11h-3.61v-4.13h3.61v-5.17h5.21v5.17h4.97v4.13h-4.97v10.47c0,1.24.44,1.68,1.44,1.68h3.53v4.13h-4.53c-3.97,0-5.65-1.6-5.65-5.17Z"/><path class="cls-1" d="M279.48,22.86h8.78c9.22,0,14.24,6.05,14.24,14.03s-5.01,14.04-14.24,14.04h-8.78v-28.07ZM288.27,48.56c7.82,0,11.51-5.25,11.51-11.67s-3.69-11.67-11.51-11.67h-6.1v23.34h6.1Z"/><path class="cls-1" d="M305.67,40.86c0-6.42,4.17-10.47,9.38-10.47s9.3,3.81,9.3,9.99v1.04h-16.08c.2,4.53,3.01,7.66,6.98,7.66,3.21,0,5.17-1.56,6.18-4.49l2.33.52c-1.24,3.97-4.09,6.22-8.5,6.22-5.57,0-9.58-4.37-9.58-10.47ZM308.35,39.26h13.39c-.4-3.97-3.09-6.62-6.7-6.62s-6.18,2.69-6.7,6.62Z"/><path class="cls-1" d="M327.12,40.86c0-6.09,3.89-10.47,9.22-10.47,3.53,0,5.81,1.88,7.22,5.37l.36-.12c-.24-1.64-.32-2.29-.32-3.29v-10.31h2.61v28.87h-2.61v-1.52c0-1,.08-1.68.32-3.33l-.32-.08c-1.44,3.49-3.73,5.33-7.26,5.33-5.33,0-9.22-4.29-9.22-10.47ZM343.56,40.86c0-4.81-2.85-8.18-6.9-8.18s-6.94,3.37-6.94,8.18,2.89,8.22,6.94,8.22,6.9-3.37,6.9-8.22Z"/><path class="cls-1" d="M355.75,50.93h-2.61v-17.88h-3.49v-2.21h6.1v20.09ZM352.38,24.9c0-1.08.88-1.93,1.92-1.93s1.97.84,1.97,1.93-.92,1.96-1.97,1.96-1.92-.84-1.92-1.96Z"/><path class="cls-1" d="M360.44,40.86c0-6.05,3.97-10.47,9.54-10.47,4.17,0,7.38,2.37,8.66,6.09l-2.45.8c-.96-2.93-3.25-4.61-6.22-4.61-4.05,0-6.94,3.41-6.94,8.18s2.89,8.22,6.94,8.22c3.37,0,5.37-1.72,6.3-4.85l2.37.36c-1.2,4.29-4.17,6.74-8.66,6.74-5.53,0-9.54-4.37-9.54-10.47Z"/><path class="cls-1" d="M381.42,45.68c0-4.13,3.21-5.37,6.29-6.13l7.06-1.69v-.56c0-2.73-1.88-4.65-4.93-4.65-2.85,0-4.57,1.56-5.05,4.09l-2.53-.44c.64-3.49,3.45-5.89,7.7-5.89,4.53,0,7.42,2.97,7.42,7.02v10.47c0,.6.16.84.6.84h1.16v2.21h-1.76c-1.64,0-2.49-.56-2.49-2.13,0-.72.12-1.52.32-2.49l-.32-.08c-1.24,3.33-3.41,5.09-7.1,5.09-3.93,0-6.38-2.21-6.38-5.65ZM388.19,49.12c3.81,0,6.58-3.01,6.58-7.74v-1.36l-6.38,1.52c-2.97.72-4.21,1.85-4.21,4.05s1.56,3.53,4.01,3.53Z"/><path class="cls-1" d="M404.79,46.32v-13.27h-4.41v-2.21h4.41v-5.37h2.61v5.37h5.53v2.21h-5.53v13.19c0,1.72.68,2.49,2.12,2.49h3.41v2.21h-3.53c-3.13,0-4.61-1.48-4.61-4.61Z"/><path class="cls-1" d="M415.1,40.86c0-6.42,4.17-10.47,9.38-10.47s9.3,3.81,9.3,9.99v1.04h-16.08c.2,4.53,3.01,7.66,6.98,7.66,3.21,0,5.17-1.56,6.18-4.49l2.33.52c-1.24,3.97-4.09,6.22-8.5,6.22-5.57,0-9.58-4.37-9.58-10.47ZM417.78,39.26h13.39c-.4-3.97-3.09-6.62-6.7-6.62s-6.18,2.69-6.7,6.62Z"/><path class="cls-1" d="M436.55,40.86c0-6.09,3.89-10.47,9.22-10.47,3.53,0,5.81,1.88,7.22,5.37l.36-.12c-.24-1.64-.32-2.29-.32-3.29v-10.31h2.61v28.87h-2.61v-1.52c0-1,.08-1.68.32-3.33l-.32-.08c-1.44,3.49-3.73,5.33-7.26,5.33-5.33,0-9.22-4.29-9.22-10.47ZM452.99,40.86c0-4.81-2.85-8.18-6.9-8.18s-6.94,3.37-6.94,8.18,2.89,8.22,6.94,8.22,6.9-3.37,6.9-8.22Z"/></svg>